# xmcd CD database file
#
# Track frame offsets:
#	150
#	45617
#	79831
#	109556
#	149485
#	208069
#	260964
#	302791
#
# Disc length: 4445 seconds
#
# Revision: 1
# Processed by: cddbd v1.5.2PL0 Copyright (c) Steve Scherf et al.
# Submitted via: CDex 1.50
#
DISCID=75115b08
DTITLE=Sigur Rós - ( )
DYEAR=2002
DGENRE=New Age
TTITLE0=untitled
TTITLE1=untitled
TTITLE2=untitled
TTITLE3=untitled
TTITLE4=untitled
TTITLE5=untitled
TTITLE6=untitled
TTITLE7=untitled
EXTD=YEAR: 2002
EXTT0=
EXTT1=
EXTT2=
EXTT3=
EXTT4=
EXTT5=
EXTT6=
EXTT7=
PLAYORDER=
